<?xml version="1.0"?>
<!DOCTYPE svg PUBLIC "-//W3C//DTD SVG 1.1//EN" "http://www.w3.org/Graphics/SVG/1.1/DTD/svg11.dtd">
<svg width="20.4mm" height="20.4mm" viewBox="0 0 20.4 20.4" xmlns="http://www.w3.org/2000/svg" version="1.1">
<g id="Sketch001" transform="translate(10.200000,10.200000) scale(1,-1)">
<path id="Sketch001_w0000"  d="M -3.90066017178 0.212132034356 L -3.90066017178 2.84 L -6.56 5.49933982822 L -8.2 5.49933982822 L -8.2 2.47859223183 L -10.0 4.27859223183 L -10.0 9.3424638351 A 0.657536164896 0.657536164896 0 0 0 -9.3424638351 10.0 L -3.60279200671 10.0 L -1.80279200671 8.2 L -5.49933982822 8.2 L -5.49933982822 6.56 L -2.84 3.90066017178 L -0.212132034356 3.90066017178 L 1.38777878078e-17 3.68852813742 L 0.212132034356 3.90066017178 L 2.84 3.90066017178 L 5.49933982822 6.56 L 5.49933982822 8.2 L 1.80279200671 8.2 L 3.60279200671 10.0 L 9.3424638351 10.0 A 0.657536164896 0.657536164896 0 0 0 10.0 9.3424638351 L 10.0 4.27859223183 L 8.2 2.47859223183 L 8.2 5.49933982822 L 6.56 5.49933982822 L 3.90066017178 2.84 L 3.90066017178 0.212132034356 L 3.68852813742 0.0 L 3.90066017178 -0.212132034356 L 3.90066017178 -2.84 L 6.56 -5.49933982822 L 8.2 -5.49933982822 L 8.2 -2.47859223183 L 10.0 -4.27859223183 L 10.0 -9.3424638351 A 0.657536164896 0.657536164896 0 0 0 9.3424638351 -10.0 L 3.60279200671 -10.0 L 1.80279200671 -8.2 L 5.49933982822 -8.2 L 5.49933982822 -6.56 L 2.84 -3.90066017178 L 0.212132034356 -3.90066017178 L 0.0 -3.68852813742 L -0.212132034356 -3.90066017178 L -2.84 -3.90066017178 L -5.49933982822 -6.56 L -5.49933982822 -8.2 L -1.80279200671 -8.2 L -3.60279200671 -10.0 L -9.3424638351 -10.0 A 0.657536164896 0.657536164896 0 0 0 -10.0 -9.3424638351 L -10.0 -4.27859223183 L -8.2 -2.47859223183 L -8.2 -5.49933982822 L -6.56 -5.49933982822 L -3.90066017178 -2.84 L -3.90066017178 -0.212132034356 L -3.68852813742 0.0 L -3.90066017178 0.212132034356 " stroke="#000000" stroke-width="0.35 px" style="stroke-width:0.35;stroke-miterlimit:4;stroke-dasharray:none;fill:none;fill-rule: evenodd "/>
<title>Sketch001</title>
</g>
<g id="Sketch004" transform="translate(10.200000,10.200000) scale(1,-1)">
<path id="Sketch004_w0000"  d="M -8.2 -6.78835391126 L -8.2 -8.2 L -6.78835391125 -8.2 A 0.219014083035 0.219014083035 0 0 1 -6.56933982822 -7.98098591696 L -6.56933982822 -7.63 L -7.63 -6.56933982822 L -7.98098591697 -6.56933982822 A 0.219014083035 0.219014083035 0 0 1 -8.2 -6.78835391126 " stroke="#000000" stroke-width="0.35 px" style="stroke-width:0.35;stroke-miterlimit:4;stroke-dasharray:none;fill:none;fill-rule: evenodd "/>
<title>Sketch004</title>
</g>
<g id="Sketch003" transform="translate(10.200000,10.200000) scale(1,-1)">
<path id="Sketch003_w0000"  d="M 8.2 6.78835391126 L 8.2 8.2 L 6.78835391125 8.2 A 0.219014083035 0.219014083035 0 0 1 6.56933982822 7.98098591696 L 6.56933982822 7.63 L 7.63 6.56933982822 L 7.98098591697 6.56933982822 A 0.219014083035 0.219014083035 0 0 1 8.2 6.78835391126 " stroke="#000000" stroke-width="0.35 px" style="stroke-width:0.35;stroke-miterlimit:4;stroke-dasharray:none;fill:none;fill-rule: evenodd "/>
<title>Sketch003</title>
</g>
<g id="Sketch002" transform="translate(10.200000,10.200000) scale(1,-1)">
<path id="Sketch002_w0000"  d="M -6.56933982822 7.98098591697 L -6.56933982822 7.63 L -7.63 6.56933982822 L -7.98098591696 6.56933982822 A 0.219014083035 0.219014083035 0 0 0 -8.2 6.78835391125 L -8.2 8.2 L -6.78835391126 8.2 A 0.219014083035 0.219014083035 0 0 0 -6.56933982822 7.98098591697 " stroke="#000000" stroke-width="0.35 px" style="stroke-width:0.35;stroke-miterlimit:4;stroke-dasharray:none;fill:none;fill-rule: evenodd "/>
<title>Sketch002</title>
</g>
<g id="Sketch005" transform="translate(10.200000,10.200000) scale(1,-1)">
<path id="Sketch005_w0000"  d="M 6.56933982822 -7.98098591697 L 6.56933982822 -7.63 L 7.63 -6.56933982822 L 7.98098591696 -6.56933982822 A 0.219014083035 0.219014083035 0 0 0 8.2 -6.78835391126 L 8.2 -8.2 L 6.78835391126 -8.2 A 0.219014083035 0.219014083035 0 0 0 6.56933982822 -7.98098591697 " stroke="#000000" stroke-width="0.35 px" style="stroke-width:0.35;stroke-miterlimit:4;stroke-dasharray:none;fill:none;fill-rule: evenodd "/>
<title>Sketch005</title>
</g>
<g id="Circle" transform="translate(10.200000,10.200000) scale(1,-1)">
<circle cx="0.0" cy="0.0" r="2.1" stroke="#000000" stroke-width="0.35 px" style="stroke-width:0.35;stroke-miterlimit:4;stroke-dasharray:none;fill:none"/>
<title>Circle</title>
</g>
</svg>