  0
SECTION
  2
HEADER
  9
$ACADVER
  1
AC1014
  9
$HANDSEED
  5
FFFF
  9
$MEASUREMENT
 70
     1
  0
ENDSEC
  0
SECTION
  2
TABLES
  0
TABLE
  2
VPORT
  5
8
330
0
100
AcDbSymbolTable
 70
     4
  0
VPORT
  5
2E
330
8
100
AcDbSymbolTableRecord
100
AcDbViewportTableRecord
  2
*ACTIVE
 70
     0
 10
0.0
 20
0.0
 11
1.0
 21
1.0
 12
210.0
 22
148.5
 13
0.0
 23
0.0
 14
10.0
 24
10.0
 15
10.0
 25
10.0
 16
0.0
 26
0.0
 36
1.0
 17
0.0
 27
0.0
 37
0.0
 40
341.0
 41
1.24
 42
50.0
 43
0.0
 44
0.0
 50
0.0
 51
0.0
 71
     0
 72
   100
 73
     1
 74
     3
 75
     0
 76
     0
 77
     0
 78
     0
  0
ENDTAB
  0
TABLE
  2
LTYPE
  5
5
330
0
100
AcDbSymbolTable
 70
     1
  0
LTYPE
  5
14
330
5
100
AcDbSymbolTableRecord
100
AcDbLinetypeTableRecord
  2
BYBLOCK
 70
     0
  3

 72
    65
 73
     0
 40
0.0
  0
LTYPE
  5
15
330
5
100
AcDbSymbolTableRecord
100
AcDbLinetypeTableRecord
  2
BYLAYER
 70
     0
  3

 72
    65
 73
     0
 40
0.0
  0
LTYPE
  5
16
330
5
100
AcDbSymbolTableRecord
100
AcDbLinetypeTableRecord
  2
CONTINUOUS
 70
     0
  3
Solid line
 72
    65
 73
     0
 40
0.0
  0
ENDTAB
  0
TABLE
  2
LAYER
  5
2
100
AcDbSymbolTable
 70
1
  0
LAYER
  5
50
100
AcDbSymbolTableRecord
100
AcDbLayerTableRecord
  2
0
 70
0
  6
CONTINUOUS
  0
ENDTAB
  0
TABLE
  2
STYLE
  5
3
330
0
100
AcDbSymbolTable
 70
     1
  0
STYLE
  5
11
330
3
100
AcDbSymbolTableRecord
100
AcDbTextStyleTableRecord
  2
STANDARD
 70
     0
 40
0.0
 41
1.0
 50
0.0
 71
     0
 42
2.5
  3
txt
  4

  0
ENDTAB
  0
TABLE
  2
VIEW
  5
6
330
0
100
AcDbSymbolTable
 70
     0
  0
ENDTAB
  0
TABLE
  2
UCS
  5
7
330
0
100
AcDbSymbolTable
 70
     0
  0
ENDTAB
  0
TABLE
  2
APPID
  5
9
330
0
100
AcDbSymbolTable
 70
     2
  0
APPID
  5
12
330
9
100
AcDbSymbolTableRecord
100
AcDbRegAppTableRecord
  2
ACAD
 70
     0
  0
ENDTAB
  0
TABLE
  2
DIMSTYLE
  5
A
330
0
100
AcDbSymbolTable
 70
     1
  0
DIMSTYLE
105
27
330
A
100
AcDbSymbolTableRecord
100
AcDbDimStyleTableRecord
  2
ISO-25
 70
     0
  3

  4

  5

  6

  7

 40
1.0
 41
2.5
 42
0.625
 43
3.75
 44
1.25
 45
0.0
 46
0.0
 47
0.0
 48
0.0
140
2.5
141
2.5
142
0.0
143
0.03937007874016
144
1.0
145
0.0
146
1.0
147
0.625
 71
     0
 72
     0
 73
     0
 74
     0
 75
     0
 76
     0
 77
     1
 78
     8
170
     0
171
     3
172
     1
173
     0
174
     0
175
     0
176
     0
177
     0
178
     0
270
     2
271
     2
272
     2
273
     2
274
     3
340
11
275
     0
280
     0
281
     0
282
     0
283
     0
284
     8
285
     0
286
     0
287
     3
288
     0
  0
ENDTAB
  0
TABLE
  2
BLOCK_RECORD
  5
1
330
0
100
AcDbSymbolTable
 70
     1
  0
BLOCK_RECORD
  5
1F
330
1
100
AcDbSymbolTableRecord
100
AcDbBlockTableRecord
  2
*MODEL_SPACE
  0
BLOCK_RECORD
  5
1B
330
1
100
AcDbSymbolTableRecord
100
AcDbBlockTableRecord
  2
*PAPER_SPACE
  0
ENDTAB
  0
ENDSEC
  0
SECTION
  2
BLOCKS
  0
BLOCK
  5
20
330
1F
100
AcDbEntity
  8
0
100
AcDbBlockBegin
  2
*MODEL_SPACE
 70
     0
 10
0.0
 20
0.0
 30
0.0
  3
*MODEL_SPACE
  1

  0
ENDBLK
  5
21
330
1F
100
AcDbEntity
  8
0
100
AcDbBlockEnd
  0
BLOCK
  5
1C
330
1B
100
AcDbEntity
 67
     1
  8
0
100
AcDbBlockBegin
  2
*PAPER_SPACE
  1

  0
ENDBLK
  5
1D
330
1B
100
AcDbEntity
 67
     1
  8
0
100
AcDbBlockEnd
  0
ENDSEC
  0
SECTION
  2
ENTITIES
  0
LWPOLYLINE
  5
100
100
AcDbEntity
  8
0
 62
7
100
AcDbPolyline
 90
481
 70
0
 10
6.299340
 20
10.412132
 30
0.0
 10
6.299340
 20
10.740616
 30
0.0
 10
6.299340
 20
11.069099
 30
0.0
 10
6.299340
 20
11.397582
 30
0.0
 10
6.299340
 20
11.726066
 30
0.0
 10
6.299340
 20
12.054549
 30
0.0
 10
6.299340
 20
12.383033
 30
0.0
 10
6.299340
 20
12.711516
 30
0.0
 10
6.299340
 20
13.040000
 30
0.0
 10
5.966922
 20
13.372417
 30
0.0
 10
5.634505
 20
13.704835
 30
0.0
 10
5.302087
 20
14.037252
 30
0.0
 10
4.969670
 20
14.369670
 30
0.0
 10
4.637252
 20
14.702087
 30
0.0
 10
4.304835
 20
15.034505
 30
0.0
 10
3.972417
 20
15.366922
 30
0.0
 10
3.640000
 20
15.699340
 30
0.0
 10
3.435000
 20
15.699340
 30
0.0
 10
3.230000
 20
15.699340
 30
0.0
 10
3.025000
 20
15.699340
 30
0.0
 10
2.820000
 20
15.699340
 30
0.0
 10
2.615000
 20
15.699340
 30
0.0
 10
2.410000
 20
15.699340
 30
0.0
 10
2.205000
 20
15.699340
 30
0.0
 10
2.000000
 20
15.699340
 30
0.0
 10
2.000000
 20
15.321746
 30
0.0
 10
2.000000
 20
14.944153
 30
0.0
 10
2.000000
 20
14.566559
 30
0.0
 10
2.000000
 20
14.188966
 30
0.0
 10
2.000000
 20
13.811373
 30
0.0
 10
2.000000
 20
13.433779
 30
0.0
 10
2.000000
 20
13.056186
 30
0.0
 10
2.000000
 20
12.678592
 30
0.0
 10
1.775000
 20
12.903592
 30
0.0
 10
1.550000
 20
13.128592
 30
0.0
 10
1.325000
 20
13.353592
 30
0.0
 10
1.100000
 20
13.578592
 30
0.0
 10
0.875000
 20
13.803592
 30
0.0
 10
0.650000
 20
14.028592
 30
0.0
 10
0.425000
 20
14.253592
 30
0.0
 10
0.200000
 20
14.478592
 30
0.0
 10
0.200000
 20
15.111576
 30
0.0
 10
0.200000
 20
15.744560
 30
0.0
 10
0.200000
 20
16.377544
 30
0.0
 10
0.200000
 20
17.010528
 30
0.0
 10
0.200000
 20
17.643512
 30
0.0
 10
0.200000
 20
18.276496
 30
0.0
 10
0.200000
 20
18.909480
 30
0.0
 10
0.200000
 20
19.542464
 30
0.0
 10
0.213359
 20
19.674980
 30
0.0
 10
0.251673
 20
19.798407
 30
0.0
 10
0.312297
 20
19.910099
 30
0.0
 10
0.392588
 20
20.007413
 30
0.0
 10
0.489902
 20
20.087704
 30
0.0
 10
0.601594
 20
20.148328
 30
0.0
 10
0.725020
 20
20.186642
 30
0.0
 10
0.857536
 20
20.200000
 30
0.0
 10
1.574995
 20
20.200000
 30
0.0
 10
2.292454
 20
20.200000
 30
0.0
 10
3.009913
 20
20.200000
 30
0.0
 10
3.727372
 20
20.200000
 30
0.0
 10
4.444831
 20
20.200000
 30
0.0
 10
5.162290
 20
20.200000
 30
0.0
 10
5.879749
 20
20.200000
 30
0.0
 10
6.597208
 20
20.200000
 30
0.0
 10
6.822208
 20
19.975000
 30
0.0
 10
7.047208
 20
19.750000
 30
0.0
 10
7.272208
 20
19.525000
 30
0.0
 10
7.497208
 20
19.300000
 30
0.0
 10
7.722208
 20
19.075000
 30
0.0
 10
7.947208
 20
18.850000
 30
0.0
 10
8.172208
 20
18.625000
 30
0.0
 10
8.397208
 20
18.400000
 30
0.0
 10
7.935139
 20
18.400000
 30
0.0
 10
7.473071
 20
18.400000
 30
0.0
 10
7.011003
 20
18.400000
 30
0.0
 10
6.548934
 20
18.400000
 30
0.0
 10
6.086866
 20
18.400000
 30
0.0
 10
5.624797
 20
18.400000
 30
0.0
 10
5.162729
 20
18.400000
 30
0.0
 10
4.700660
 20
18.400000
 30
0.0
 10
4.700660
 20
18.195000
 30
0.0
 10
4.700660
 20
17.990000
 30
0.0
 10
4.700660
 20
17.785000
 30
0.0
 10
4.700660
 20
17.580000
 30
0.0
 10
4.700660
 20
17.375000
 30
0.0
 10
4.700660
 20
17.170000
 30
0.0
 10
4.700660
 20
16.965000
 30
0.0
 10
4.700660
 20
16.760000
 30
0.0
 10
5.033078
 20
16.427582
 30
0.0
 10
5.365495
 20
16.095165
 30
0.0
 10
5.697913
 20
15.762748
 30
0.0
 10
6.030330
 20
15.430330
 30
0.0
 10
6.362748
 20
15.097913
 30
0.0
 10
6.695165
 20
14.765495
 30
0.0
 10
7.027582
 20
14.433078
 30
0.0
 10
7.360000
 20
14.100660
 30
0.0
 10
7.688483
 20
14.100660
 30
0.0
 10
8.016967
 20
14.100660
 30
0.0
 10
8.345450
 20
14.100660
 30
0.0
 10
8.673934
 20
14.100660
 30
0.0
 10
9.002417
 20
14.100660
 30
0.0
 10
9.330901
 20
14.100660
 30
0.0
 10
9.659384
 20
14.100660
 30
0.0
 10
9.987868
 20
14.100660
 30
0.0
 10
10.014384
 20
14.074143
 30
0.0
 10
10.040901
 20
14.047626
 30
0.0
 10
10.067417
 20
14.021110
 30
0.0
 10
10.093934
 20
13.994593
 30
0.0
 10
10.120450
 20
13.968076
 30
0.0
 10
10.146967
 20
13.941559
 30
0.0
 10
10.173483
 20
13.915045
 30
0.0
 10
10.200000
 20
13.888528
 30
0.0
 10
10.226516
 20
13.915045
 30
0.0
 10
10.253033
 20
13.941562
 30
0.0
 10
10.279550
 20
13.968079
 30
0.0
 10
10.306066
 20
13.994596
 30
0.0
 10
10.332583
 20
14.021113
 30
0.0
 10
10.359099
 20
14.047629
 30
0.0
 10
10.385616
 20
14.074146
 30
0.0
 10
10.412132
 20
14.100663
 30
0.0
 10
10.740616
 20
14.100663
 30
0.0
 10
11.069099
 20
14.100663
 30
0.0
 10
11.397582
 20
14.100663
 30
0.0
 10
11.726066
 20
14.100663
 30
0.0
 10
12.054549
 20
14.100663
 30
0.0
 10
12.383033
 20
14.100663
 30
0.0
 10
12.711516
 20
14.100663
 30
0.0
 10
13.040000
 20
14.100663
 30
0.0
 10
13.372417
 20
14.433078
 30
0.0
 10
13.704835
 20
14.765495
 30
0.0
 10
14.037252
 20
15.097913
 30
0.0
 10
14.369670
 20
15.430330
 30
0.0
 10
14.702087
 20
15.762748
 30
0.0
 10
15.034505
 20
16.095165
 30
0.0
 10
15.366922
 20
16.427582
 30
0.0
 10
15.699340
 20
16.760000
 30
0.0
 10
15.699340
 20
16.965000
 30
0.0
 10
15.699340
 20
17.170000
 30
0.0
 10
15.699340
 20
17.375000
 30
0.0
 10
15.699340
 20
17.580000
 30
0.0
 10
15.699340
 20
17.785000
 30
0.0
 10
15.699340
 20
17.990000
 30
0.0
 10
15.699340
 20
18.195000
 30
0.0
 10
15.699340
 20
18.400000
 30
0.0
 10
15.237271
 20
18.400000
 30
0.0
 10
14.775203
 20
18.400000
 30
0.0
 10
14.313134
 20
18.400000
 30
0.0
 10
13.851066
 20
18.400000
 30
0.0
 10
13.388997
 20
18.400000
 30
0.0
 10
12.926929
 20
18.400000
 30
0.0
 10
12.464860
 20
18.400000
 30
0.0
 10
12.002792
 20
18.400000
 30
0.0
 10
12.227792
 20
18.625000
 30
0.0
 10
12.452792
 20
18.850000
 30
0.0
 10
12.677792
 20
19.075000
 30
0.0
 10
12.902792
 20
19.300000
 30
0.0
 10
13.127792
 20
19.525000
 30
0.0
 10
13.352792
 20
19.750000
 30
0.0
 10
13.577792
 20
19.975000
 30
0.0
 10
13.802792
 20
20.200000
 30
0.0
 10
14.520251
 20
20.200000
 30
0.0
 10
15.237710
 20
20.200000
 30
0.0
 10
15.955169
 20
20.200000
 30
0.0
 10
16.672628
 20
20.200000
 30
0.0
 10
17.390087
 20
20.200000
 30
0.0
 10
18.107546
 20
20.200000
 30
0.0
 10
18.825005
 20
20.200000
 30
0.0
 10
19.542464
 20
20.200000
 30
0.0
 10
19.674980
 20
20.186641
 30
0.0
 10
19.798407
 20
20.148327
 30
0.0
 10
19.910099
 20
20.087703
 30
0.0
 10
20.007413
 20
20.007412
 30
0.0
 10
20.087704
 20
19.910098
 30
0.0
 10
20.148328
 20
19.798406
 30
0.0
 10
20.186642
 20
19.674980
 30
0.0
 10
20.200000
 20
19.542464
 30
0.0
 10
20.200000
 20
18.909480
 30
0.0
 10
20.200000
 20
18.276496
 30
0.0
 10
20.200000
 20
17.643512
 30
0.0
 10
20.200000
 20
17.010528
 30
0.0
 10
20.200000
 20
16.377544
 30
0.0
 10
20.200000
 20
15.744560
 30
0.0
 10
20.200000
 20
15.111576
 30
0.0
 10
20.200000
 20
14.478592
 30
0.0
 10
19.975000
 20
14.253592
 30
0.0
 10
19.750000
 20
14.028592
 30
0.0
 10
19.525000
 20
13.803592
 30
0.0
 10
19.300000
 20
13.578592
 30
0.0
 10
19.075000
 20
13.353592
 30
0.0
 10
18.850000
 20
13.128592
 30
0.0
 10
18.625000
 20
12.903592
 30
0.0
 10
18.400000
 20
12.678592
 30
0.0
 10
18.400000
 20
13.056186
 30
0.0
 10
18.400000
 20
13.433779
 30
0.0
 10
18.400000
 20
13.811373
 30
0.0
 10
18.400000
 20
14.188966
 30
0.0
 10
18.400000
 20
14.566560
 30
0.0
 10
18.400000
 20
14.944153
 30
0.0
 10
18.400000
 20
15.321746
 30
0.0
 10
18.400000
 20
15.699340
 30
0.0
 10
18.195000
 20
15.699340
 30
0.0
 10
17.990000
 20
15.699340
 30
0.0
 10
17.785000
 20
15.699340
 30
0.0
 10
17.580000
 20
15.699340
 30
0.0
 10
17.375000
 20
15.699340
 30
0.0
 10
17.170000
 20
15.699340
 30
0.0
 10
16.965000
 20
15.699340
 30
0.0
 10
16.760000
 20
15.699340
 30
0.0
 10
16.427582
 20
15.366922
 30
0.0
 10
16.095165
 20
15.034505
 30
0.0
 10
15.762748
 20
14.702087
 30
0.0
 10
15.430330
 20
14.369670
 30
0.0
 10
15.097913
 20
14.037252
 30
0.0
 10
14.765495
 20
13.704835
 30
0.0
 10
14.433078
 20
13.372417
 30
0.0
 10
14.100660
 20
13.040000
 30
0.0
 10
14.100660
 20
12.711516
 30
0.0
 10
14.100660
 20
12.383033
 30
0.0
 10
14.100660
 20
12.054550
 30
0.0
 10
14.100660
 20
11.726066
 30
0.0
 10
14.100660
 20
11.397582
 30
0.0
 10
14.100660
 20
11.069099
 30
0.0
 10
14.100660
 20
10.740616
 30
0.0
 10
14.100660
 20
10.412132
 30
0.0
 10
14.074144
 20
10.385616
 30
0.0
 10
14.047627
 20
10.359099
 30
0.0
 10
14.021111
 20
10.332583
 30
0.0
 10
13.994594
 20
10.306066
 30
0.0
 10
13.968078
 20
10.279550
 30
0.0
 10
13.941561
 20
10.253033
 30
0.0
 10
13.915045
 20
10.226516
 30
0.0
 10
13.888528
 20
10.200000
 30
0.0
 10
13.915045
 20
10.173483
 30
0.0
 10
13.941562
 20
10.146967
 30
0.0
 10
13.968079
 20
10.120450
 30
0.0
 10
13.994596
 20
10.093934
 30
0.0
 10
14.021113
 20
10.067417
 30
0.0
 10
14.047629
 20
10.040901
 30
0.0
 10
14.074146
 20
10.014384
 30
0.0
 10
14.100663
 20
9.987868
 30
0.0
 10
14.100663
 20
9.659384
 30
0.0
 10
14.100663
 20
9.330901
 30
0.0
 10
14.100663
 20
9.002417
 30
0.0
 10
14.100663
 20
8.673934
 30
0.0
 10
14.100663
 20
8.345451
 30
0.0
 10
14.100663
 20
8.016967
 30
0.0
 10
14.100663
 20
7.688483
 30
0.0
 10
14.100663
 20
7.360000
 30
0.0
 10
14.433078
 20
7.027582
 30
0.0
 10
14.765495
 20
6.695165
 30
0.0
 10
15.097913
 20
6.362748
 30
0.0
 10
15.430330
 20
6.030330
 30
0.0
 10
15.762748
 20
5.697913
 30
0.0
 10
16.095165
 20
5.365495
 30
0.0
 10
16.427582
 20
5.033078
 30
0.0
 10
16.760000
 20
4.700660
 30
0.0
 10
16.965000
 20
4.700660
 30
0.0
 10
17.170000
 20
4.700660
 30
0.0
 10
17.375000
 20
4.700660
 30
0.0
 10
17.580000
 20
4.700660
 30
0.0
 10
17.785000
 20
4.700660
 30
0.0
 10
17.990000
 20
4.700660
 30
0.0
 10
18.195000
 20
4.700660
 30
0.0
 10
18.400000
 20
4.700660
 30
0.0
 10
18.400000
 20
5.078254
 30
0.0
 10
18.400000
 20
5.455847
 30
0.0
 10
18.400000
 20
5.833441
 30
0.0
 10
18.400000
 20
6.211034
 30
0.0
 10
18.400000
 20
6.588627
 30
0.0
 10
18.400000
 20
6.966221
 30
0.0
 10
18.400000
 20
7.343814
 30
0.0
 10
18.400000
 20
7.721408
 30
0.0
 10
18.625000
 20
7.496408
 30
0.0
 10
18.850000
 20
7.271408
 30
0.0
 10
19.075000
 20
7.046408
 30
0.0
 10
19.300000
 20
6.821408
 30
0.0
 10
19.525000
 20
6.596408
 30
0.0
 10
19.750000
 20
6.371408
 30
0.0
 10
19.975000
 20
6.146408
 30
0.0
 10
20.200000
 20
5.921408
 30
0.0
 10
20.200000
 20
5.288424
 30
0.0
 10
20.200000
 20
4.655440
 30
0.0
 10
20.200000
 20
4.022456
 30
0.0
 10
20.200000
 20
3.389472
 30
0.0
 10
20.200000
 20
2.756488
 30
0.0
 10
20.200000
 20
2.123504
 30
0.0
 10
20.200000
 20
1.490520
 30
0.0
 10
20.200000
 20
0.857536
 30
0.0
 10
20.186641
 20
0.725020
 30
0.0
 10
20.148327
 20
0.601593
 30
0.0
 10
20.087703
 20
0.489901
 30
0.0
 10
20.007412
 20
0.392587
 30
0.0
 10
19.910098
 20
0.312296
 30
0.0
 10
19.798406
 20
0.251672
 30
0.0
 10
19.674980
 20
0.213358
 30
0.0
 10
19.542464
 20
0.200000
 30
0.0
 10
18.825005
 20
0.200000
 30
0.0
 10
18.107546
 20
0.200000
 30
0.0
 10
17.390087
 20
0.200000
 30
0.0
 10
16.672628
 20
0.200000
 30
0.0
 10
15.955169
 20
0.200000
 30
0.0
 10
15.237710
 20
0.200000
 30
0.0
 10
14.520251
 20
0.200000
 30
0.0
 10
13.802792
 20
0.200000
 30
0.0
 10
13.577792
 20
0.425000
 30
0.0
 10
13.352792
 20
0.650000
 30
0.0
 10
13.127792
 20
0.875000
 30
0.0
 10
12.902792
 20
1.100000
 30
0.0
 10
12.677792
 20
1.325000
 30
0.0
 10
12.452792
 20
1.550000
 30
0.0
 10
12.227792
 20
1.775000
 30
0.0
 10
12.002792
 20
2.000000
 30
0.0
 10
12.464861
 20
2.000000
 30
0.0
 10
12.926929
 20
2.000000
 30
0.0
 10
13.388997
 20
2.000000
 30
0.0
 10
13.851066
 20
2.000000
 30
0.0
 10
14.313134
 20
2.000000
 30
0.0
 10
14.775203
 20
2.000000
 30
0.0
 10
15.237271
 20
2.000000
 30
0.0
 10
15.699340
 20
2.000000
 30
0.0
 10
15.699340
 20
2.205000
 30
0.0
 10
15.699340
 20
2.410000
 30
0.0
 10
15.699340
 20
2.615000
 30
0.0
 10
15.699340
 20
2.820000
 30
0.0
 10
15.699340
 20
3.025000
 30
0.0
 10
15.699340
 20
3.230000
 30
0.0
 10
15.699340
 20
3.435000
 30
0.0
 10
15.699340
 20
3.640000
 30
0.0
 10
15.366922
 20
3.972417
 30
0.0
 10
15.034505
 20
4.304835
 30
0.0
 10
14.702087
 20
4.637252
 30
0.0
 10
14.369670
 20
4.969670
 30
0.0
 10
14.037252
 20
5.302087
 30
0.0
 10
13.704835
 20
5.634505
 30
0.0
 10
13.372417
 20
5.966922
 30
0.0
 10
13.040000
 20
6.299340
 30
0.0
 10
12.711516
 20
6.299340
 30
0.0
 10
12.383033
 20
6.299340
 30
0.0
 10
12.054550
 20
6.299340
 30
0.0
 10
11.726066
 20
6.299340
 30
0.0
 10
11.397582
 20
6.299340
 30
0.0
 10
11.069099
 20
6.299340
 30
0.0
 10
10.740616
 20
6.299340
 30
0.0
 10
10.412132
 20
6.299340
 30
0.0
 10
10.385616
 20
6.325857
 30
0.0
 10
10.359099
 20
6.352374
 30
0.0
 10
10.332583
 20
6.378890
 30
0.0
 10
10.306066
 20
6.405407
 30
0.0
 10
10.279550
 20
6.431924
 30
0.0
 10
10.253033
 20
6.458441
 30
0.0
 10
10.226516
 20
6.484955
 30
0.0
 10
10.200000
 20
6.511472
 30
0.0
 10
10.173483
 20
6.484955
 30
0.0
 10
10.146967
 20
6.458438
 30
0.0
 10
10.120450
 20
6.431921
 30
0.0
 10
10.093934
 20
6.405404
 30
0.0
 10
10.067417
 20
6.378887
 30
0.0
 10
10.040901
 20
6.352371
 30
0.0
 10
10.014384
 20
6.325854
 30
0.0
 10
9.987868
 20
6.299337
 30
0.0
 10
9.659384
 20
6.299337
 30
0.0
 10
9.330901
 20
6.299337
 30
0.0
 10
9.002417
 20
6.299337
 30
0.0
 10
8.673934
 20
6.299337
 30
0.0
 10
8.345451
 20
6.299337
 30
0.0
 10
8.016967
 20
6.299337
 30
0.0
 10
7.688483
 20
6.299337
 30
0.0
 10
7.360000
 20
6.299337
 30
0.0
 10
7.027582
 20
5.966922
 30
0.0
 10
6.695165
 20
5.634505
 30
0.0
 10
6.362748
 20
5.302087
 30
0.0
 10
6.030330
 20
4.969670
 30
0.0
 10
5.697913
 20
4.637252
 30
0.0
 10
5.365495
 20
4.304835
 30
0.0
 10
5.033078
 20
3.972417
 30
0.0
 10
4.700660
 20
3.640000
 30
0.0
 10
4.700660
 20
3.435000
 30
0.0
 10
4.700660
 20
3.230000
 30
0.0
 10
4.700660
 20
3.025000
 30
0.0
 10
4.700660
 20
2.820000
 30
0.0
 10
4.700660
 20
2.615000
 30
0.0
 10
4.700660
 20
2.410000
 30
0.0
 10
4.700660
 20
2.205000
 30
0.0
 10
4.700660
 20
2.000000
 30
0.0
 10
5.162729
 20
2.000000
 30
0.0
 10
5.624797
 20
2.000000
 30
0.0
 10
6.086866
 20
2.000000
 30
0.0
 10
6.548934
 20
2.000000
 30
0.0
 10
7.011003
 20
2.000000
 30
0.0
 10
7.473071
 20
2.000000
 30
0.0
 10
7.935140
 20
2.000000
 30
0.0
 10
8.397208
 20
2.000000
 30
0.0
 10
8.172208
 20
1.775000
 30
0.0
 10
7.947208
 20
1.550000
 30
0.0
 10
7.722208
 20
1.325000
 30
0.0
 10
7.497208
 20
1.100000
 30
0.0
 10
7.272208
 20
0.875000
 30
0.0
 10
7.047208
 20
0.650000
 30
0.0
 10
6.822208
 20
0.425000
 30
0.0
 10
6.597208
 20
0.200000
 30
0.0
 10
5.879749
 20
0.200000
 30
0.0
 10
5.162290
 20
0.200000
 30
0.0
 10
4.444831
 20
0.200000
 30
0.0
 10
3.727372
 20
0.200000
 30
0.0
 10
3.009913
 20
0.200000
 30
0.0
 10
2.292454
 20
0.200000
 30
0.0
 10
1.574995
 20
0.200000
 30
0.0
 10
0.857536
 20
0.200000
 30
0.0
 10
0.725020
 20
0.213359
 30
0.0
 10
0.601593
 20
0.251673
 30
0.0
 10
0.489901
 20
0.312297
 30
0.0
 10
0.392587
 20
0.392588
 30
0.0
 10
0.312296
 20
0.489902
 30
0.0
 10
0.251672
 20
0.601594
 30
0.0
 10
0.213358
 20
0.725020
 30
0.0
 10
0.200000
 20
0.857536
 30
0.0
 10
0.200000
 20
1.490520
 30
0.0
 10
0.200000
 20
2.123504
 30
0.0
 10
0.200000
 20
2.756488
 30
0.0
 10
0.200000
 20
3.389472
 30
0.0
 10
0.200000
 20
4.022456
 30
0.0
 10
0.200000
 20
4.655440
 30
0.0
 10
0.200000
 20
5.288424
 30
0.0
 10
0.200000
 20
5.921408
 30
0.0
 10
0.425000
 20
6.146408
 30
0.0
 10
0.650000
 20
6.371408
 30
0.0
 10
0.875000
 20
6.596408
 30
0.0
 10
1.100000
 20
6.821408
 30
0.0
 10
1.325000
 20
7.046408
 30
0.0
 10
1.550000
 20
7.271408
 30
0.0
 10
1.775000
 20
7.496408
 30
0.0
 10
2.000000
 20
7.721408
 30
0.0
 10
2.000000
 20
7.343814
 30
0.0
 10
2.000000
 20
6.966221
 30
0.0
 10
2.000000
 20
6.588627
 30
0.0
 10
2.000000
 20
6.211034
 30
0.0
 10
2.000000
 20
5.833440
 30
0.0
 10
2.000000
 20
5.455847
 30
0.0
 10
2.000000
 20
5.078254
 30
0.0
 10
2.000000
 20
4.700660
 30
0.0
 10
2.205000
 20
4.700660
 30
0.0
 10
2.410000
 20
4.700660
 30
0.0
 10
2.615000
 20
4.700660
 30
0.0
 10
2.820000
 20
4.700660
 30
0.0
 10
3.025000
 20
4.700660
 30
0.0
 10
3.230000
 20
4.700660
 30
0.0
 10
3.435000
 20
4.700660
 30
0.0
 10
3.640000
 20
4.700660
 30
0.0
 10
3.972417
 20
5.033078
 30
0.0
 10
4.304835
 20
5.365495
 30
0.0
 10
4.637252
 20
5.697913
 30
0.0
 10
4.969670
 20
6.030330
 30
0.0
 10
5.302087
 20
6.362748
 30
0.0
 10
5.634505
 20
6.695165
 30
0.0
 10
5.966922
 20
7.027582
 30
0.0
 10
6.299340
 20
7.360000
 30
0.0
 10
6.299340
 20
7.688483
 30
0.0
 10
6.299340
 20
8.016967
 30
0.0
 10
6.299340
 20
8.345450
 30
0.0
 10
6.299340
 20
8.673934
 30
0.0
 10
6.299340
 20
9.002417
 30
0.0
 10
6.299340
 20
9.330901
 30
0.0
 10
6.299340
 20
9.659384
 30
0.0
 10
6.299340
 20
9.987868
 30
0.0
 10
6.325857
 20
10.014384
 30
0.0
 10
6.352374
 20
10.040901
 30
0.0
 10
6.378890
 20
10.067417
 30
0.0
 10
6.405407
 20
10.093934
 30
0.0
 10
6.431924
 20
10.120450
 30
0.0
 10
6.458441
 20
10.146967
 30
0.0
 10
6.484958
 20
10.173483
 30
0.0
 10
6.511472
 20
10.200000
 30
0.0
 10
6.484955
 20
10.226516
 30
0.0
 10
6.458438
 20
10.253033
 30
0.0
 10
6.431921
 20
10.279550
 30
0.0
 10
6.405404
 20
10.306066
 30
0.0
 10
6.378887
 20
10.332583
 30
0.0
 10
6.352371
 20
10.359099
 30
0.0
 10
6.325854
 20
10.385616
 30
0.0
 10
6.299337
 20
10.412132
 30
0.0
  0
LWPOLYLINE
  5
101
100
AcDbEntity
  8
0
 62
7
100
AcDbPolyline
 90
57
 70
0
 10
2.000000
 20
3.411646
 30
0.0
 10
2.000000
 20
3.235190
 30
0.0
 10
2.000000
 20
3.058735
 30
0.0
 10
2.000000
 20
2.882279
 30
0.0
 10
2.000000
 20
2.705823
 30
0.0
 10
2.000000
 20
2.529367
 30
0.0
 10
2.000000
 20
2.352911
 30
0.0
 10
2.000000
 20
2.176456
 30
0.0
 10
2.000000
 20
2.000000
 30
0.0
 10
2.176456
 20
2.000000
 30
0.0
 10
2.352911
 20
2.000000
 30
0.0
 10
2.529367
 20
2.000000
 30
0.0
 10
2.705823
 20
2.000000
 30
0.0
 10
2.882279
 20
2.000000
 30
0.0
 10
3.058735
 20
2.000000
 30
0.0
 10
3.235190
 20
2.000000
 30
0.0
 10
3.411646
 20
2.000000
 30
0.0
 10
3.455785
 20
2.004450
 30
0.0
 10
3.496896
 20
2.017212
 30
0.0
 10
3.534099
 20
2.037405
 30
0.0
 10
3.566513
 20
2.064149
 30
0.0
 10
3.593257
 20
2.096563
 30
0.0
 10
3.613450
 20
2.133766
 30
0.0
 10
3.626212
 20
2.174877
 30
0.0
 10
3.630662
 20
2.219016
 30
0.0
 10
3.630662
 20
2.262889
 30
0.0
 10
3.630662
 20
2.306762
 30
0.0
 10
3.630662
 20
2.350635
 30
0.0
 10
3.630662
 20
2.394508
 30
0.0
 10
3.630662
 20
2.438381
 30
0.0
 10
3.630662
 20
2.482254
 30
0.0
 10
3.630662
 20
2.526127
 30
0.0
 10
3.630662
 20
2.570000
 30
0.0
 10
3.498080
 20
2.702582
 30
0.0
 10
3.365497
 20
2.835165
 30
0.0
 10
3.232915
 20
2.967748
 30
0.0
 10
3.100332
 20
3.100330
 30
0.0
 10
2.967750
 20
3.232913
 30
0.0
 10
2.835167
 20
3.365495
 30
0.0
 10
2.702584
 20
3.498078
 30
0.0
 10
2.570002
 20
3.630660
 30
0.0
 10
2.526129
 20
3.630660
 30
0.0
 10
2.482256
 20
3.630660
 30
0.0
 10
2.438383
 20
3.630660
 30
0.0
 10
2.394510
 20
3.630660
 30
0.0
 10
2.350637
 20
3.630660
 30
0.0
 10
2.306764
 20
3.630660
 30
0.0
 10
2.262891
 20
3.630660
 30
0.0
 10
2.219018
 20
3.630660
 30
0.0
 10
2.174879
 20
3.626210
 30
0.0
 10
2.133768
 20
3.613448
 30
0.0
 10
2.096565
 20
3.593255
 30
0.0
 10
2.064151
 20
3.566511
 30
0.0
 10
2.037407
 20
3.534097
 30
0.0
 10
2.017214
 20
3.496894
 30
0.0
 10
2.004452
 20
3.455783
 30
0.0
 10
2.000000
 20
3.411646
 30
0.0
  0
LWPOLYLINE
  5
102
100
AcDbEntity
  8
0
 62
7
100
AcDbPolyline
 90
57
 70
0
 10
18.400000
 20
16.988354
 30
0.0
 10
18.400000
 20
17.164810
 30
0.0
 10
18.400000
 20
17.341265
 30
0.0
 10
18.400000
 20
17.517721
 30
0.0
 10
18.400000
 20
17.694177
 30
0.0
 10
18.400000
 20
17.870633
 30
0.0
 10
18.400000
 20
18.047089
 30
0.0
 10
18.400000
 20
18.223544
 30
0.0
 10
18.400000
 20
18.400000
 30
0.0
 10
18.223544
 20
18.400000
 30
0.0
 10
18.047089
 20
18.400000
 30
0.0
 10
17.870633
 20
18.400000
 30
0.0
 10
17.694177
 20
18.400000
 30
0.0
 10
17.517721
 20
18.400000
 30
0.0
 10
17.341265
 20
18.400000
 30
0.0
 10
17.164810
 20
18.400000
 30
0.0
 10
16.988354
 20
18.400000
 30
0.0
 10
16.944215
 20
18.395550
 30
0.0
 10
16.903104
 20
18.382788
 30
0.0
 10
16.865901
 20
18.362595
 30
0.0
 10
16.833487
 20
18.335851
 30
0.0
 10
16.806743
 20
18.303437
 30
0.0
 10
16.786550
 20
18.266234
 30
0.0
 10
16.773788
 20
18.225123
 30
0.0
 10
16.769338
 20
18.180984
 30
0.0
 10
16.769338
 20
18.137111
 30
0.0
 10
16.769338
 20
18.093238
 30
0.0
 10
16.769338
 20
18.049365
 30
0.0
 10
16.769338
 20
18.005492
 30
0.0
 10
16.769338
 20
17.961619
 30
0.0
 10
16.769338
 20
17.917746
 30
0.0
 10
16.769338
 20
17.873873
 30
0.0
 10
16.769338
 20
17.830000
 30
0.0
 10
16.901922
 20
17.697418
 30
0.0
 10
17.034505
 20
17.564835
 30
0.0
 10
17.167087
 20
17.432252
 30
0.0
 10
17.299670
 20
17.299670
 30
0.0
 10
17.432252
 20
17.167087
 30
0.0
 10
17.564835
 20
17.034505
 30
0.0
 10
17.697418
 20
16.901922
 30
0.0
 10
17.830000
 20
16.769340
 30
0.0
 10
17.873873
 20
16.769340
 30
0.0
 10
17.917746
 20
16.769340
 30
0.0
 10
17.961619
 20
16.769340
 30
0.0
 10
18.005492
 20
16.769340
 30
0.0
 10
18.049365
 20
16.769340
 30
0.0
 10
18.093238
 20
16.769340
 30
0.0
 10
18.137111
 20
16.769340
 30
0.0
 10
18.180984
 20
16.769340
 30
0.0
 10
18.225123
 20
16.773790
 30
0.0
 10
18.266234
 20
16.786552
 30
0.0
 10
18.303437
 20
16.806745
 30
0.0
 10
18.335851
 20
16.833489
 30
0.0
 10
18.362595
 20
16.865903
 30
0.0
 10
18.382788
 20
16.903106
 30
0.0
 10
18.395550
 20
16.944217
 30
0.0
 10
18.400000
 20
16.988354
 30
0.0
  0
LWPOLYLINE
  5
103
100
AcDbEntity
  8
0
 62
7
100
AcDbPolyline
 90
57
 70
0
 10
3.630660
 20
18.180986
 30
0.0
 10
3.630660
 20
18.137113
 30
0.0
 10
3.630660
 20
18.093240
 30
0.0
 10
3.630660
 20
18.049367
 30
0.0
 10
3.630660
 20
18.005494
 30
0.0
 10
3.630660
 20
17.961621
 30
0.0
 10
3.630660
 20
17.917748
 30
0.0
 10
3.630660
 20
17.873875
 30
0.0
 10
3.630660
 20
17.830002
 30
0.0
 10
3.498078
 20
17.697418
 30
0.0
 10
3.365495
 20
17.564835
 30
0.0
 10
3.232913
 20
17.432252
 30
0.0
 10
3.100330
 20
17.299670
 30
0.0
 10
2.967748
 20
17.167087
 30
0.0
 10
2.835165
 20
17.034505
 30
0.0
 10
2.702582
 20
16.901922
 30
0.0
 10
2.570000
 20
16.769340
 30
0.0
 10
2.526127
 20
16.769340
 30
0.0
 10
2.482254
 20
16.769340
 30
0.0
 10
2.438381
 20
16.769340
 30
0.0
 10
2.394508
 20
16.769340
 30
0.0
 10
2.350635
 20
16.769340
 30
0.0
 10
2.306762
 20
16.769340
 30
0.0
 10
2.262889
 20
16.769340
 30
0.0
 10
2.219016
 20
16.769340
 30
0.0
 10
2.174877
 20
16.773790
 30
0.0
 10
2.133766
 20
16.786552
 30
0.0
 10
2.096563
 20
16.806745
 30
0.0
 10
2.064149
 20
16.833489
 30
0.0
 10
2.037405
 20
16.865903
 30
0.0
 10
2.017212
 20
16.903106
 30
0.0
 10
2.004450
 20
16.944217
 30
0.0
 10
2.000000
 20
16.988354
 30
0.0
 10
2.000000
 20
17.164810
 30
0.0
 10
2.000000
 20
17.341265
 30
0.0
 10
2.000000
 20
17.517721
 30
0.0
 10
2.000000
 20
17.694177
 30
0.0
 10
2.000000
 20
17.870633
 30
0.0
 10
2.000000
 20
18.047088
 30
0.0
 10
2.000000
 20
18.223544
 30
0.0
 10
2.000000
 20
18.400000
 30
0.0
 10
2.176456
 20
18.400000
 30
0.0
 10
2.352911
 20
18.400000
 30
0.0
 10
2.529367
 20
18.400000
 30
0.0
 10
2.705823
 20
18.400000
 30
0.0
 10
2.882279
 20
18.400000
 30
0.0
 10
3.058735
 20
18.400000
 30
0.0
 10
3.235190
 20
18.400000
 30
0.0
 10
3.411646
 20
18.400000
 30
0.0
 10
3.455785
 20
18.395550
 30
0.0
 10
3.496896
 20
18.382788
 30
0.0
 10
3.534099
 20
18.362595
 30
0.0
 10
3.566513
 20
18.335851
 30
0.0
 10
3.593257
 20
18.303437
 30
0.0
 10
3.613450
 20
18.266234
 30
0.0
 10
3.626212
 20
18.225123
 30
0.0
 10
3.630662
 20
18.180984
 30
0.0
  0
LWPOLYLINE
  5
104
100
AcDbEntity
  8
0
 62
7
100
AcDbPolyline
 90
57
 70
0
 10
16.769340
 20
2.219014
 30
0.0
 10
16.769340
 20
2.262887
 30
0.0
 10
16.769340
 20
2.306760
 30
0.0
 10
16.769340
 20
2.350633
 30
0.0
 10
16.769340
 20
2.394506
 30
0.0
 10
16.769340
 20
2.438379
 30
0.0
 10
16.769340
 20
2.482252
 30
0.0
 10
16.769340
 20
2.526125
 30
0.0
 10
16.769340
 20
2.569998
 30
0.0
 10
16.901922
 20
2.702581
 30
0.0
 10
17.034505
 20
2.835163
 30
0.0
 10
17.167087
 20
2.967746
 30
0.0
 10
17.299670
 20
3.100328
 30
0.0
 10
17.432252
 20
3.232911
 30
0.0
 10
17.564835
 20
3.365493
 30
0.0
 10
17.697418
 20
3.498076
 30
0.0
 10
17.830000
 20
3.630658
 30
0.0
 10
17.873873
 20
3.630658
 30
0.0
 10
17.917746
 20
3.630658
 30
0.0
 10
17.961619
 20
3.630658
 30
0.0
 10
18.005492
 20
3.630658
 30
0.0
 10
18.049365
 20
3.630658
 30
0.0
 10
18.093238
 20
3.630658
 30
0.0
 10
18.137111
 20
3.630658
 30
0.0
 10
18.180984
 20
3.630658
 30
0.0
 10
18.225123
 20
3.626208
 30
0.0
 10
18.266234
 20
3.613446
 30
0.0
 10
18.303437
 20
3.593253
 30
0.0
 10
18.335851
 20
3.566509
 30
0.0
 10
18.362595
 20
3.534095
 30
0.0
 10
18.382788
 20
3.496892
 30
0.0
 10
18.395550
 20
3.455781
 30
0.0
 10
18.400000
 20
3.411646
 30
0.0
 10
18.400000
 20
3.235190
 30
0.0
 10
18.400000
 20
3.058735
 30
0.0
 10
18.400000
 20
2.882279
 30
0.0
 10
18.400000
 20
2.705823
 30
0.0
 10
18.400000
 20
2.529367
 30
0.0
 10
18.400000
 20
2.352912
 30
0.0
 10
18.400000
 20
2.176456
 30
0.0
 10
18.400000
 20
2.000000
 30
0.0
 10
18.223544
 20
2.000000
 30
0.0
 10
18.047088
 20
2.000000
 30
0.0
 10
17.870633
 20
2.000000
 30
0.0
 10
17.694177
 20
2.000000
 30
0.0
 10
17.517721
 20
2.000000
 30
0.0
 10
17.341265
 20
2.000000
 30
0.0
 10
17.164810
 20
2.000000
 30
0.0
 10
16.988354
 20
2.000000
 30
0.0
 10
16.944215
 20
2.004450
 30
0.0
 10
16.903104
 20
2.017212
 30
0.0
 10
16.865901
 20
2.037405
 30
0.0
 10
16.833487
 20
2.064149
 30
0.0
 10
16.806743
 20
2.096563
 30
0.0
 10
16.786550
 20
2.133766
 30
0.0
 10
16.773788
 20
2.174877
 30
0.0
 10
16.769338
 20
2.219016
 30
0.0
  0
LWPOLYLINE
  5
105
100
AcDbEntity
  8
0
 62
7
100
AcDbPolyline
 90
17
 70
1
 10
12.300000
 20
10.200000
 30
0.0
 10
12.134971
 20
11.017415
 30
0.0
 10
11.684924
 20
11.684924
 30
0.0
 10
11.017415
 20
12.134971
 30
0.0
 10
10.200000
 20
12.300000
 30
0.0
 10
9.382585
 20
12.134971
 30
0.0
 10
8.715076
 20
11.684924
 30
0.0
 10
8.265028
 20
11.017415
 30
0.0
 10
8.100000
 20
10.200000
 30
0.0
 10
8.265028
 20
9.382585
 30
0.0
 10
8.715076
 20
8.715076
 30
0.0
 10
9.382585
 20
8.265028
 30
0.0
 10
10.200000
 20
8.100000
 30
0.0
 10
11.017415
 20
8.265028
 30
0.0
 10
11.684924
 20
8.715076
 30
0.0
 10
12.134971
 20
9.382585
 30
0.0
 10
12.300000
 20
10.200000
 30
0.0
  0
ENDSEC
  0
SECTION
  2
OBJECTS
  0
DICTIONARY
  5
C
330
0
100
AcDbDictionary
  3
ACAD_GROUP
350
D
  3
ACAD_MLINESTYLE
350
17
  0
DICTIONARY
  5
D
330
C
100
AcDbDictionary
  0
DICTIONARY
  5
1A
330
C
100
AcDbDictionary
  0
DICTIONARY
  5
17
330
C
100
AcDbDictionary
  3
STANDARD
350
18
  0
DICTIONARY
  5
19
330
C
100
AcDbDictionary
  0
ENDSEC
  0
EOF
